# xmcd
#
# Track frame offsets: 
#        150
#        21157
#        43372
#        63805
#        85181
#        108152
#        132086
#        152749
#        172052
#        196971
#
# Disc length: 2892 seconds
#
# Revision: 4
# Processed by: cddbd v1.5.2PL0 Copyright (c) Steve Scherf et al.
# Submitted via: ExactAudioCopyFreeDBPlugin 1.0
#
DISCID=7f0b4a0a
DTITLE=ALI PROJECT - Dilettante
DYEAR=2005
DGENRE=Gothic Rock
TTITLE0=愛と誠
TTITLE1=人生美味礼讃
TTITLE2=肉体の悪魔
TTITLE3=緋紅的牡丹
TTITLE4=ディレッタントの秘かな愉しみ
TTITLE5=昭和恋々幻燈館
TTITLE6=密猟区
TTITLE7=北京LOVERS
TTITLE8=鎮魂頌
TTITLE9=柔らかな肌 (Instrumental)
EXTD=YEAR: 2005
EXTT0=
EXTT1=
EXTT2=
EXTT3=
EXTT4=
EXTT5=
EXTT6=
EXTT7=
EXTT8=
EXTT9=
PLAYORDER=
